<svg width="1440" height="1024" viewBox="0 0 1440 1024" fill="none" xmlns="http://www.w3.org/2000/svg">
<g clip-path="url(#clip0_302_8)">
<rect width="1440" height="1024" fill="#0B1354"/>
<rect x="663" y="289" width="433" height="192" fill="#006BE5"/>
<rect x="649" y="939" width="114" height="461" transform="rotate(-90 649 939)" fill="#006BE5"/>
<rect x="1222" y="87" width="114" height="1133" fill="#006BE5"/>
<rect x="403" y="60" width="114" height="1133" fill="#006BE5"/>
<rect x="143" y="130" width="114" height="364" fill="#006BE5"/>
<rect x="403" y="174" width="114" height="1133" transform="rotate(-90 403 174)" fill="#006BE5"/>
<rect y="710" width="114" height="1440" transform="rotate(-90 0 710)" fill="#006BE5"/>
<mask id="path-8-outside-1_302_8" maskUnits="userSpaceOnUse" x="454" y="349" width="524" height="286" fill="black">
<rect fill="white" x="454" y="349" width="524" height="286"/>
<path d="M606.24 363.05H618.39V482H593.94V375.2H567.24V462.35H542.79V375.2H516.09V482H491.79V363.05H503.94V350.9H606.24V363.05ZM650.27 428.6H719.57V375.2H650.27V428.6ZM731.72 363.05H743.87V482.15H719.57V453.05H650.27V482.15H625.97V363.05H638.12V350.9H731.72V363.05ZM788.107 453.8H775.807V457.7H847.057V482.15H775.807H763.657H751.507V441.65H763.657V429.35H775.807V417.2H788.107V405.05H800.257V392.75H812.407V380.6H825.007V375.2H753.457V350.9H825.007H837.157H849.457V393.05H836.857V405.05H824.707V417.2H812.407V429.35H800.257V441.65H788.107V453.8ZM939.626 375.2H881.276V404.3H923.126V428.6H881.276V457.7H939.626V482.15H869.126V469.85H856.976V363.05H869.126V350.9H939.626V375.2ZM545.092 526.2H479.542V608.7H545.092V633.15H467.392V620.85H455.242V514.2H467.392V501.9H545.092V526.2ZM577.101 567.45H630.501V526.2H577.101V567.45ZM642.651 591.9H626.151V608.7H654.951V633H614.001V620.85H601.701V591.9H577.101V633H552.801V591.9V567.45V526.2V501.9H577.101H642.651V514.05H654.951V579.6H642.651V591.9ZM686.818 579.6H756.118V526.2H686.818V579.6ZM768.268 514.05H780.418V633.15H756.118V604.05H686.818V633.15H662.518V514.05H674.668V501.9H768.268V514.05ZM824.655 604.8H812.355V608.7H883.605V633.15H812.355H800.205H788.055V592.65H800.205V580.35H812.355V568.2H824.655V556.05H836.805V543.75H848.955V531.6H861.555V526.2H790.005V501.9H861.555H873.705H886.005V544.05H873.405V556.05H861.255V568.2H848.955V580.35H836.805V592.65H824.655V604.8ZM976.173 526.2H917.823V555.3H959.673V579.6H917.823V608.7H976.173V633.15H905.673V620.85H893.523V514.05H905.673V501.9H976.173V526.2Z"/>
</mask>
<path d="M606.24 363.05H618.39V482H593.94V375.2H567.24V462.35H542.79V375.2H516.09V482H491.79V363.05H503.94V350.9H606.24V363.05ZM650.27 428.6H719.57V375.2H650.27V428.6ZM731.72 363.05H743.87V482.15H719.57V453.05H650.27V482.15H625.97V363.05H638.12V350.9H731.72V363.05ZM788.107 453.8H775.807V457.7H847.057V482.15H775.807H763.657H751.507V441.65H763.657V429.35H775.807V417.2H788.107V405.05H800.257V392.75H812.407V380.6H825.007V375.2H753.457V350.9H825.007H837.157H849.457V393.05H836.857V405.05H824.707V417.2H812.407V429.35H800.257V441.65H788.107V453.8ZM939.626 375.2H881.276V404.3H923.126V428.6H881.276V457.7H939.626V482.15H869.126V469.85H856.976V363.05H869.126V350.9H939.626V375.2ZM545.092 526.2H479.542V608.7H545.092V633.15H467.392V620.85H455.242V514.2H467.392V501.9H545.092V526.2ZM577.101 567.45H630.501V526.2H577.101V567.45ZM642.651 591.9H626.151V608.7H654.951V633H614.001V620.85H601.701V591.9H577.101V633H552.801V591.9V567.45V526.2V501.9H577.101H642.651V514.05H654.951V579.6H642.651V591.9ZM686.818 579.6H756.118V526.2H686.818V579.6ZM768.268 514.05H780.418V633.15H756.118V604.05H686.818V633.15H662.518V514.05H674.668V501.9H768.268V514.05ZM824.655 604.8H812.355V608.7H883.605V633.15H812.355H800.205H788.055V592.65H800.205V580.35H812.355V568.2H824.655V556.05H836.805V543.75H848.955V531.6H861.555V526.2H790.005V501.9H861.555H873.705H886.005V544.05H873.405V556.05H861.255V568.2H848.955V580.35H836.805V592.65H824.655V604.8ZM976.173 526.2H917.823V555.3H959.673V579.6H917.823V608.7H976.173V633.15H905.673V620.85H893.523V514.05H905.673V501.9H976.173V526.2Z" fill="#FFE604"/>
<path d="M606.24 363.05H605.24V364.05H606.24V363.05ZM618.39 363.05H619.39V362.05H618.39V363.05ZM618.39 482V483H619.39V482H618.39ZM593.94 482H592.94V483H593.94V482ZM593.94 375.2H594.94V374.2H593.94V375.2ZM567.24 375.2V374.2H566.24V375.2H567.24ZM567.24 462.35V463.35H568.24V462.35H567.24ZM542.79 462.35H541.79V463.35H542.79V462.35ZM542.79 375.2H543.79V374.2H542.79V375.2ZM516.09 375.2V374.2H515.09V375.2H516.09ZM516.09 482V483H517.09V482H516.09ZM491.79 482H490.79V483H491.79V482ZM491.79 363.05V362.05H490.79V363.05H491.79ZM503.94 363.05V364.05H504.94V363.05H503.94ZM503.94 350.9V349.9H502.94V350.9H503.94ZM606.24 350.9H607.24V349.9H606.24V350.9ZM606.24 364.05H618.39V362.05H606.24V364.05ZM617.39 363.05V482H619.39V363.05H617.39ZM618.39 481H593.94V483H618.39V481ZM594.94 482V375.2H592.94V482H594.94ZM593.94 374.2H567.24V376.2H593.94V374.2ZM566.24 375.2V462.35H568.24V375.2H566.24ZM567.24 461.35H542.79V463.35H567.24V461.35ZM543.79 462.35V375.2H541.79V462.35H543.79ZM542.79 374.2H516.09V376.2H542.79V374.2ZM515.09 375.2V482H517.09V375.2H515.09ZM516.09 481H491.79V483H516.09V481ZM492.79 482V363.05H490.79V482H492.79ZM491.79 364.05H503.94V362.05H491.79V364.05ZM504.94 363.05V350.9H502.94V363.05H504.94ZM503.94 351.9H606.24V349.9H503.94V351.9ZM605.24 350.9V363.05H607.24V350.9H605.24ZM650.27 428.6H649.27V429.6H650.27V428.6ZM719.57 428.6V429.6H720.57V428.6H719.57ZM719.57 375.2H720.57V374.2H719.57V375.2ZM650.27 375.2V374.2H649.27V375.2H650.27ZM731.72 363.05H730.72V364.05H731.72V363.05ZM743.87 363.05H744.87V362.05H743.87V363.05ZM743.87 482.15V483.15H744.87V482.15H743.87ZM719.57 482.15H718.57V483.15H719.57V482.15ZM719.57 453.05H720.57V452.05H719.57V453.05ZM650.27 453.05V452.05H649.27V453.05H650.27ZM650.27 482.15V483.15H651.27V482.15H650.27ZM625.97 482.15H624.97V483.15H625.97V482.15ZM625.97 363.05V362.05H624.97V363.05H625.97ZM638.12 363.05V364.05H639.12V363.05H638.12ZM638.12 350.9V349.9H637.12V350.9H638.12ZM731.72 350.9H732.72V349.9H731.72V350.9ZM650.27 429.6H719.57V427.6H650.27V429.6ZM720.57 428.6V375.2H718.57V428.6H720.57ZM719.57 374.2H650.27V376.2H719.57V374.2ZM649.27 375.2V428.6H651.27V375.2H649.27ZM731.72 364.05H743.87V362.05H731.72V364.05ZM742.87 363.05V482.15H744.87V363.05H742.87ZM743.87 481.15H719.57V483.15H743.87V481.15ZM720.57 482.15V453.05H718.57V482.15H720.57ZM719.57 452.05H650.27V454.05H719.57V452.05ZM649.27 453.05V482.15H651.27V453.05H649.27ZM650.27 481.15H625.97V483.15H650.27V481.15ZM626.97 482.15V363.05H624.97V482.15H626.97ZM625.97 364.05H638.12V362.05H625.97V364.05ZM639.12 363.05V350.9H637.12V363.05H639.12ZM638.12 351.9H731.72V349.9H638.12V351.9ZM730.72 350.9V363.05H732.72V350.9H730.72ZM788.107 453.8V454.8H789.107V453.8H788.107ZM775.807 453.8V452.8H774.807V453.8H775.807ZM775.807 457.7H774.807V458.7H775.807V457.7ZM847.057 457.7H848.057V456.7H847.057V457.7ZM847.057 482.15V483.15H848.057V482.15H847.057ZM751.507 482.15H750.507V483.15H751.507V482.15ZM751.507 441.65V440.65H750.507V441.65H751.507ZM763.657 441.65V442.65H764.657V441.65H763.657ZM763.657 429.35V428.35H762.657V429.35H763.657ZM775.807 429.35V430.35H776.807V429.35H775.807ZM775.807 417.2V416.2H774.807V417.2H775.807ZM788.107 417.2V418.2H789.107V417.2H788.107ZM788.107 405.05V404.05H787.107V405.05H788.107ZM800.257 405.05V406.05H801.257V405.05H800.257ZM800.257 392.75V391.75H799.257V392.75H800.257ZM812.407 392.75V393.75H813.407V392.75H812.407ZM812.407 380.6V379.6H811.407V380.6H812.407ZM825.007 380.6V381.6H826.007V380.6H825.007ZM825.007 375.2H826.007V374.2H825.007V375.2ZM753.457 375.2H752.457V376.2H753.457V375.2ZM753.457 350.9V349.9H752.457V350.9H753.457ZM849.457 350.9H850.457V349.9H849.457V350.9ZM849.457 393.05V394.05H850.457V393.05H849.457ZM836.857 393.05V392.05H835.857V393.05H836.857ZM836.857 405.05V406.05H837.857V405.05H836.857ZM824.707 405.05V404.05H823.707V405.05H824.707ZM824.707 417.2V418.2H825.707V417.2H824.707ZM812.407 417.2V416.2H811.407V417.2H812.407ZM812.407 429.35V430.35H813.407V429.35H812.407ZM800.257 429.35V428.35H799.257V429.35H800.257ZM800.257 441.65V442.65H801.257V441.65H800.257ZM788.107 441.65V440.65H787.107V441.65H788.107ZM788.107 452.8H775.807V454.8H788.107V452.8ZM774.807 453.8V457.7H776.807V453.8H774.807ZM775.807 458.7H847.057V456.7H775.807V458.7ZM846.057 457.7V482.15H848.057V457.7H846.057ZM847.057 481.15H775.807V483.15H847.057V481.15ZM775.807 481.15H763.657V483.15H775.807V481.15ZM763.657 481.15H751.507V483.15H763.657V481.15ZM752.507 482.15V441.65H750.507V482.15H752.507ZM751.507 442.65H763.657V440.65H751.507V442.65ZM764.657 441.65V429.35H762.657V441.65H764.657ZM763.657 430.35H775.807V428.35H763.657V430.35ZM776.807 429.35V417.2H774.807V429.35H776.807ZM775.807 418.2H788.107V416.2H775.807V418.2ZM789.107 417.2V405.05H787.107V417.2H789.107ZM788.107 406.05H800.257V404.05H788.107V406.05ZM801.257 405.05V392.75H799.257V405.05H801.257ZM800.257 393.75H812.407V391.75H800.257V393.75ZM813.407 392.75V380.6H811.407V392.75H813.407ZM812.407 381.6H825.007V379.6H812.407V381.6ZM826.007 380.6V375.2H824.007V380.6H826.007ZM825.007 374.2H753.457V376.2H825.007V374.2ZM754.457 375.2V350.9H752.457V375.2H754.457ZM753.457 351.9H825.007V349.9H753.457V351.9ZM825.007 351.9H837.157V349.9H825.007V351.9ZM837.157 351.9H849.457V349.9H837.157V351.9ZM848.457 350.9V393.05H850.457V350.9H848.457ZM849.457 392.05H836.857V394.05H849.457V392.05ZM835.857 393.05V405.05H837.857V393.05H835.857ZM836.857 404.05H824.707V406.05H836.857V404.05ZM823.707 405.05V417.2H825.707V405.05H823.707ZM824.707 416.2H812.407V418.2H824.707V416.2ZM811.407 417.2V429.35H813.407V417.2H811.407ZM812.407 428.35H800.257V430.35H812.407V428.35ZM799.257 429.35V441.65H801.257V429.35H799.257ZM800.257 440.65H788.107V442.65H800.257V440.65ZM787.107 441.65V453.8H789.107V441.65H787.107ZM939.626 375.2V376.2H940.626V375.2H939.626ZM881.276 375.2V374.2H880.276V375.2H881.276ZM881.276 404.3H880.276V405.3H881.276V404.3ZM923.126 404.3H924.126V403.3H923.126V404.3ZM923.126 428.6V429.6H924.126V428.6H923.126ZM881.276 428.6V427.6H880.276V428.6H881.276ZM881.276 457.7H880.276V458.7H881.276V457.7ZM939.626 457.7H940.626V456.7H939.626V457.7ZM939.626 482.15V483.15H940.626V482.15H939.626ZM869.126 482.15H868.126V483.15H869.126V482.15ZM869.126 469.85H870.126V468.85H869.126V469.85ZM856.976 469.85H855.976V470.85H856.976V469.85ZM856.976 363.05V362.05H855.976V363.05H856.976ZM869.126 363.05V364.05H870.126V363.05H869.126ZM869.126 350.9V349.9H868.126V350.9H869.126ZM939.626 350.9H940.626V349.9H939.626V350.9ZM939.626 374.2H881.276V376.2H939.626V374.2ZM880.276 375.2V404.3H882.276V375.2H880.276ZM881.276 405.3H923.126V403.3H881.276V405.3ZM922.126 404.3V428.6H924.126V404.3H922.126ZM923.126 427.6H881.276V429.6H923.126V427.6ZM880.276 428.6V457.7H882.276V428.6H880.276ZM881.276 458.7H939.626V456.7H881.276V458.7ZM938.626 457.7V482.15H940.626V457.7H938.626ZM939.626 481.15H869.126V483.15H939.626V481.15ZM870.126 482.15V469.85H868.126V482.15H870.126ZM869.126 468.85H856.976V470.85H869.126V468.85ZM857.976 469.85V363.05H855.976V469.85H857.976ZM856.976 364.05H869.126V362.05H856.976V364.05ZM870.126 363.05V350.9H868.126V363.05H870.126ZM869.126 351.9H939.626V349.9H869.126V351.9ZM938.626 350.9V375.2H940.626V350.9H938.626ZM545.092 526.2V527.2H546.092V526.2H545.092ZM479.542 526.2V525.2H478.542V526.2H479.542ZM479.542 608.7H478.542V609.7H479.542V608.7ZM545.092 608.7H546.092V607.7H545.092V608.7ZM545.092 633.15V634.15H546.092V633.15H545.092ZM467.392 633.15H466.392V634.15H467.392V633.15ZM467.392 620.85H468.392V619.85H467.392V620.85ZM455.242 620.85H454.242V621.85H455.242V620.85ZM455.242 514.2V513.2H454.242V514.2H455.242ZM467.392 514.2V515.2H468.392V514.2H467.392ZM467.392 501.9V500.9H466.392V501.9H467.392ZM545.092 501.9H546.092V500.9H545.092V501.9ZM545.092 525.2H479.542V527.2H545.092V525.2ZM478.542 526.2V608.7H480.542V526.2H478.542ZM479.542 609.7H545.092V607.7H479.542V609.7ZM544.092 608.7V633.15H546.092V608.7H544.092ZM545.092 632.15H467.392V634.15H545.092V632.15ZM468.392 633.15V620.85H466.392V633.15H468.392ZM467.392 619.85H455.242V621.85H467.392V619.85ZM456.242 620.85V514.2H454.242V620.85H456.242ZM455.242 515.2H467.392V513.2H455.242V515.2ZM468.392 514.2V501.9H466.392V514.2H468.392ZM467.392 502.9H545.092V500.9H467.392V502.9ZM544.092 501.9V526.2H546.092V501.9H544.092ZM577.101 567.45H576.101V568.45H577.101V567.45ZM630.501 567.45V568.45H631.501V567.45H630.501ZM630.501 526.2H631.501V525.2H630.501V526.2ZM577.101 526.2V525.2H576.101V526.2H577.101ZM642.651 591.9V592.9H643.651V591.9H642.651ZM626.151 591.9V590.9H625.151V591.9H626.151ZM626.151 608.7H625.151V609.7H626.151V608.7ZM654.951 608.7H655.951V607.7H654.951V608.7ZM654.951 633V634H655.951V633H654.951ZM614.001 633H613.001V634H614.001V633ZM614.001 620.85H615.001V619.85H614.001V620.85ZM601.701 620.85H600.701V621.85H601.701V620.85ZM601.701 591.9H602.701V590.9H601.701V591.9ZM577.101 591.9V590.9H576.101V591.9H577.101ZM577.101 633V634H578.101V633H577.101ZM552.801 633H551.801V634H552.801V633ZM552.801 501.9V500.9H551.801V501.9H552.801ZM642.651 501.9H643.651V500.9H642.651V501.9ZM642.651 514.05H641.651V515.05H642.651V514.05ZM654.951 514.05H655.951V513.05H654.951V514.05ZM654.951 579.6V580.6H655.951V579.6H654.951ZM642.651 579.6V578.6H641.651V579.6H642.651ZM577.101 568.45H630.501V566.45H577.101V568.45ZM631.501 567.45V526.2H629.501V567.45H631.501ZM630.501 525.2H577.101V527.2H630.501V525.2ZM576.101 526.2V567.45H578.101V526.2H576.101ZM642.651 590.9H626.151V592.9H642.651V590.9ZM625.151 591.9V608.7H627.151V591.9H625.151ZM626.151 609.7H654.951V607.7H626.151V609.7ZM653.951 608.7V633H655.951V608.7H653.951ZM654.951 632H614.001V634H654.951V632ZM615.001 633V620.85H613.001V633H615.001ZM614.001 619.85H601.701V621.85H614.001V619.85ZM602.701 620.85V591.9H600.701V620.85H602.701ZM601.701 590.9H577.101V592.9H601.701V590.9ZM576.101 591.9V633H578.101V591.9H576.101ZM577.101 632H552.801V634H577.101V632ZM553.801 633V591.9H551.801V633H553.801ZM553.801 591.9V567.45H551.801V591.9H553.801ZM553.801 567.45V526.2H551.801V567.45H553.801ZM553.801 526.2V501.9H551.801V526.2H553.801ZM552.801 502.9H577.101V500.9H552.801V502.9ZM577.101 502.9H642.651V500.9H577.101V502.9ZM641.651 501.9V514.05H643.651V501.9H641.651ZM642.651 515.05H654.951V513.05H642.651V515.05ZM653.951 514.05V579.6H655.951V514.05H653.951ZM654.951 578.6H642.651V580.6H654.951V578.6ZM641.651 579.6V591.9H643.651V579.6H641.651ZM686.818 579.6H685.818V580.6H686.818V579.6ZM756.118 579.6V580.6H757.118V579.6H756.118ZM756.118 526.2H757.118V525.2H756.118V526.2ZM686.818 526.2V525.2H685.818V526.2H686.818ZM768.268 514.05H767.268V515.05H768.268V514.05ZM780.418 514.05H781.418V513.05H780.418V514.05ZM780.418 633.15V634.15H781.418V633.15H780.418ZM756.118 633.15H755.118V634.15H756.118V633.15ZM756.118 604.05H757.118V603.05H756.118V604.05ZM686.818 604.05V603.05H685.818V604.05H686.818ZM686.818 633.15V634.15H687.818V633.15H686.818ZM662.518 633.15H661.518V634.15H662.518V633.15ZM662.518 514.05V513.05H661.518V514.05H662.518ZM674.668 514.05V515.05H675.668V514.05H674.668ZM674.668 501.9V500.9H673.668V501.9H674.668ZM768.268 501.9H769.268V500.9H768.268V501.9ZM686.818 580.6H756.118V578.6H686.818V580.6ZM757.118 579.6V526.2H755.118V579.6H757.118ZM756.118 525.2H686.818V527.2H756.118V525.2ZM685.818 526.2V579.6H687.818V526.2H685.818ZM768.268 515.05H780.418V513.05H768.268V515.05ZM779.418 514.05V633.15H781.418V514.05H779.418ZM780.418 632.15H756.118V634.15H780.418V632.15ZM757.118 633.15V604.05H755.118V633.15H757.118ZM756.118 603.05H686.818V605.05H756.118V603.05ZM685.818 604.05V633.15H687.818V604.05H685.818ZM686.818 632.15H662.518V634.15H686.818V632.15ZM663.518 633.15V514.05H661.518V633.15H663.518ZM662.518 515.05H674.668V513.05H662.518V515.05ZM675.668 514.05V501.9H673.668V514.05H675.668ZM674.668 502.9H768.268V500.9H674.668V502.9ZM767.268 501.9V514.05H769.268V501.9H767.268ZM824.655 604.8V605.8H825.655V604.8H824.655ZM812.355 604.8V603.8H811.355V604.8H812.355ZM812.355 608.7H811.355V609.7H812.355V608.7ZM883.605 608.7H884.605V607.7H883.605V608.7ZM883.605 633.15V634.15H884.605V633.15H883.605ZM788.055 633.15H787.055V634.15H788.055V633.15ZM788.055 592.65V591.65H787.055V592.65H788.055ZM800.205 592.65V593.65H801.205V592.65H800.205ZM800.205 580.35V579.35H799.205V580.35H800.205ZM812.355 580.35V581.35H813.355V580.35H812.355ZM812.355 568.2V567.2H811.355V568.2H812.355ZM824.655 568.2V569.2H825.655V568.2H824.655ZM824.655 556.05V555.05H823.655V556.05H824.655ZM836.805 556.05V557.05H837.805V556.05H836.805ZM836.805 543.75V542.75H835.805V543.75H836.805ZM848.955 543.75V544.75H849.955V543.75H848.955ZM848.955 531.6V530.6H847.955V531.6H848.955ZM861.555 531.6V532.6H862.555V531.6H861.555ZM861.555 526.2H862.555V525.2H861.555V526.2ZM790.005 526.2H789.005V527.2H790.005V526.2ZM790.005 501.9V500.9H789.005V501.9H790.005ZM886.005 501.9H887.005V500.9H886.005V501.9ZM886.005 544.05V545.05H887.005V544.05H886.005ZM873.405 544.05V543.05H872.405V544.05H873.405ZM873.405 556.05V557.05H874.405V556.05H873.405ZM861.255 556.05V555.05H860.255V556.05H861.255ZM861.255 568.2V569.2H862.255V568.2H861.255ZM848.955 568.2V567.2H847.955V568.2H848.955ZM848.955 580.35V581.35H849.955V580.35H848.955ZM836.805 580.35V579.35H835.805V580.35H836.805ZM836.805 592.65V593.65H837.805V592.65H836.805ZM824.655 592.65V591.65H823.655V592.65H824.655ZM824.655 603.8H812.355V605.8H824.655V603.8ZM811.355 604.8V608.7H813.355V604.8H811.355ZM812.355 609.7H883.605V607.7H812.355V609.7ZM882.605 608.7V633.15H884.605V608.7H882.605ZM883.605 632.15H812.355V634.15H883.605V632.15ZM812.355 632.15H800.205V634.15H812.355V632.15ZM800.205 632.15H788.055V634.15H800.205V632.15ZM789.055 633.15V592.65H787.055V633.15H789.055ZM788.055 593.65H800.205V591.65H788.055V593.65ZM801.205 592.65V580.35H799.205V592.65H801.205ZM800.205 581.35H812.355V579.35H800.205V581.35ZM813.355 580.35V568.2H811.355V580.35H813.355ZM812.355 569.2H824.655V567.2H812.355V569.2ZM825.655 568.2V556.05H823.655V568.2H825.655ZM824.655 557.05H836.805V555.05H824.655V557.05ZM837.805 556.05V543.75H835.805V556.05H837.805ZM836.805 544.75H848.955V542.75H836.805V544.75ZM849.955 543.75V531.6H847.955V543.75H849.955ZM848.955 532.6H861.555V530.6H848.955V532.6ZM862.555 531.6V526.2H860.555V531.6H862.555ZM861.555 525.2H790.005V527.2H861.555V525.2ZM791.005 526.2V501.9H789.005V526.2H791.005ZM790.005 502.9H861.555V500.9H790.005V502.9ZM861.555 502.9H873.705V500.9H861.555V502.9ZM873.705 502.9H886.005V500.9H873.705V502.9ZM885.005 501.9V544.05H887.005V501.9H885.005ZM886.005 543.05H873.405V545.05H886.005V543.05ZM872.405 544.05V556.05H874.405V544.05H872.405ZM873.405 555.05H861.255V557.05H873.405V555.05ZM860.255 556.05V568.2H862.255V556.05H860.255ZM861.255 567.2H848.955V569.2H861.255V567.2ZM847.955 568.2V580.35H849.955V568.2H847.955ZM848.955 579.35H836.805V581.35H848.955V579.35ZM835.805 580.35V592.65H837.805V580.35H835.805ZM836.805 591.65H824.655V593.65H836.805V591.65ZM823.655 592.65V604.8H825.655V592.65H823.655ZM976.173 526.2V527.2H977.173V526.2H976.173ZM917.823 526.2V525.2H916.823V526.2H917.823ZM917.823 555.3H916.823V556.3H917.823V555.3ZM959.673 555.3H960.673V554.3H959.673V555.3ZM959.673 579.6V580.6H960.673V579.6H959.673ZM917.823 579.6V578.6H916.823V579.6H917.823ZM917.823 608.7H916.823V609.7H917.823V608.7ZM976.173 608.7H977.173V607.7H976.173V608.7ZM976.173 633.15V634.15H977.173V633.15H976.173ZM905.673 633.15H904.673V634.15H905.673V633.15ZM905.673 620.85H906.673V619.85H905.673V620.85ZM893.523 620.85H892.523V621.85H893.523V620.85ZM893.523 514.05V513.05H892.523V514.05H893.523ZM905.673 514.05V515.05H906.673V514.05H905.673ZM905.673 501.9V500.9H904.673V501.9H905.673ZM976.173 501.9H977.173V500.9H976.173V501.9ZM976.173 525.2H917.823V527.2H976.173V525.2ZM916.823 526.2V555.3H918.823V526.2H916.823ZM917.823 556.3H959.673V554.3H917.823V556.3ZM958.673 555.3V579.6H960.673V555.3H958.673ZM959.673 578.6H917.823V580.6H959.673V578.6ZM916.823 579.6V608.7H918.823V579.6H916.823ZM917.823 609.7H976.173V607.7H917.823V609.7ZM975.173 608.7V633.15H977.173V608.7H975.173ZM976.173 632.15H905.673V634.15H976.173V632.15ZM906.673 633.15V620.85H904.673V633.15H906.673ZM905.673 619.85H893.523V621.85H905.673V619.85ZM894.523 620.85V514.05H892.523V620.85H894.523ZM893.523 515.05H905.673V513.05H893.523V515.05ZM906.673 514.05V501.9H904.673V514.05H906.673ZM905.673 502.9H976.173V500.9H905.673V502.9ZM975.173 501.9V526.2H977.173V501.9H975.173Z" fill="#FFE604" mask="url(#path-8-outside-1_302_8)"/>
</g>
<defs>
<clipPath id="clip0_302_8">
<rect width="1440" height="1024" fill="white"/>
</clipPath>
</defs>
</svg>
