<svg width="1920" height="870" viewBox="0 0 1920 870" fill="none" xmlns="http://www.w3.org/2000/svg">
<g clip-path="url(#clip0_302_8)">
<rect width="1920" height="870" fill="#0B1354"/>
<rect x="1355" y="289" width="433" height="192" fill="#006BE5"/>
<rect x="903" y="-36" width="114" height="1133" fill="#006BE5"/>
<rect x="403" y="60" width="114" height="1133" fill="#006BE5"/>
<rect x="143" y="130" width="114" height="364" fill="#006BE5"/>
<rect x="403" y="174" width="114" height="1551" transform="rotate(-90 403 174)" fill="#006BE5"/>
<rect y="710" width="114" height="1936" transform="rotate(-90 0 710)" fill="#006BE5"/>
<mask id="path-7-outside-1_302_8" maskUnits="userSpaceOnUse" x="694" y="263" width="524" height="286" fill="black">
<rect fill="white" x="694" y="263" width="524" height="286"/>
<path d="M846.24 277.05H858.39V396H833.94V289.2H807.24V376.35H782.79V289.2H756.09V396H731.79V277.05H743.94V264.9H846.24V277.05ZM890.27 342.6H959.57V289.2H890.27V342.6ZM971.72 277.05H983.87V396.15H959.57V367.05H890.27V396.15H865.97V277.05H878.12V264.9H971.72V277.05ZM1028.11 367.8H1015.81V371.7H1087.06V396.15H1015.81H1003.66H991.507V355.65H1003.66V343.35H1015.81V331.2H1028.11V319.05H1040.26V306.75H1052.41V294.6H1065.01V289.2H993.457V264.9H1065.01H1077.16H1089.46V307.05H1076.86V319.05H1064.71V331.2H1052.41V343.35H1040.26V355.65H1028.11V367.8ZM1179.63 289.2H1121.28V318.3H1163.13V342.6H1121.28V371.7H1179.63V396.15H1109.13V383.85H1096.98V277.05H1109.13V264.9H1179.63V289.2ZM785.092 440.2H719.542V522.7H785.092V547.15H707.392V534.85H695.242V428.2H707.392V415.9H785.092V440.2ZM817.101 481.45H870.501V440.2H817.101V481.45ZM882.651 505.9H866.151V522.7H894.951V547H854.001V534.85H841.701V505.9H817.101V547H792.801V505.9V481.45V440.2V415.9H817.101H882.651V428.05H894.951V493.6H882.651V505.9ZM926.818 493.6H996.118V440.2H926.818V493.6ZM1008.27 428.05H1020.42V547.15H996.118V518.05H926.818V547.15H902.518V428.05H914.668V415.9H1008.27V428.05ZM1064.65 518.8H1052.35V522.7H1123.6V547.15H1052.35H1040.2H1028.05V506.65H1040.2V494.35H1052.35V482.2H1064.65V470.05H1076.8V457.75H1088.95V445.6H1101.55V440.2H1030V415.9H1101.55H1113.7H1126V458.05H1113.4V470.05H1101.25V482.2H1088.95V494.35H1076.8V506.65H1064.65V518.8ZM1216.17 440.2H1157.82V469.3H1199.67V493.6H1157.82V522.7H1216.17V547.15H1145.67V534.85H1133.52V428.05H1145.67V415.9H1216.17V440.2Z"/>
</mask>
<path d="M846.24 277.05H858.39V396H833.94V289.2H807.24V376.35H782.79V289.2H756.09V396H731.79V277.05H743.94V264.9H846.24V277.05ZM890.27 342.6H959.57V289.2H890.27V342.6ZM971.72 277.05H983.87V396.15H959.57V367.05H890.27V396.15H865.97V277.05H878.12V264.9H971.72V277.05ZM1028.11 367.8H1015.81V371.7H1087.06V396.15H1015.81H1003.66H991.507V355.65H1003.66V343.35H1015.81V331.2H1028.11V319.05H1040.26V306.75H1052.41V294.6H1065.01V289.2H993.457V264.9H1065.01H1077.16H1089.46V307.05H1076.86V319.05H1064.71V331.2H1052.41V343.35H1040.26V355.65H1028.11V367.8ZM1179.63 289.2H1121.28V318.3H1163.13V342.6H1121.28V371.7H1179.63V396.15H1109.13V383.85H1096.98V277.05H1109.13V264.9H1179.63V289.2ZM785.092 440.2H719.542V522.7H785.092V547.15H707.392V534.85H695.242V428.2H707.392V415.9H785.092V440.2ZM817.101 481.45H870.501V440.2H817.101V481.45ZM882.651 505.9H866.151V522.7H894.951V547H854.001V534.85H841.701V505.9H817.101V547H792.801V505.9V481.45V440.2V415.9H817.101H882.651V428.05H894.951V493.6H882.651V505.9ZM926.818 493.6H996.118V440.2H926.818V493.6ZM1008.27 428.05H1020.42V547.15H996.118V518.05H926.818V547.15H902.518V428.05H914.668V415.9H1008.27V428.05ZM1064.65 518.8H1052.35V522.7H1123.6V547.15H1052.35H1040.2H1028.05V506.65H1040.2V494.35H1052.35V482.2H1064.65V470.05H1076.8V457.75H1088.95V445.6H1101.55V440.2H1030V415.9H1101.55H1113.7H1126V458.05H1113.4V470.05H1101.25V482.2H1088.95V494.35H1076.8V506.65H1064.65V518.8ZM1216.17 440.2H1157.82V469.3H1199.67V493.6H1157.82V522.7H1216.17V547.15H1145.67V534.85H1133.52V428.05H1145.67V415.9H1216.17V440.2Z" fill="#FFE604"/>
<path d="M846.24 277.05H845.24V278.05H846.24V277.05ZM858.39 277.05H859.39V276.05H858.39V277.05ZM858.39 396V397H859.39V396H858.39ZM833.94 396H832.94V397H833.94V396ZM833.94 289.2H834.94V288.2H833.94V289.2ZM807.24 289.2V288.2H806.24V289.2H807.24ZM807.24 376.35V377.35H808.24V376.35H807.24ZM782.79 376.35H781.79V377.35H782.79V376.35ZM782.79 289.2H783.79V288.2H782.79V289.2ZM756.09 289.2V288.2H755.09V289.2H756.09ZM756.09 396V397H757.09V396H756.09ZM731.79 396H730.79V397H731.79V396ZM731.79 277.05V276.05H730.79V277.05H731.79ZM743.94 277.05V278.05H744.94V277.05H743.94ZM743.94 264.9V263.9H742.94V264.9H743.94ZM846.24 264.9H847.24V263.9H846.24V264.9ZM846.24 278.05H858.39V276.05H846.24V278.05ZM857.39 277.05V396H859.39V277.05H857.39ZM858.39 395H833.94V397H858.39V395ZM834.94 396V289.2H832.94V396H834.94ZM833.94 288.2H807.24V290.2H833.94V288.2ZM806.24 289.2V376.35H808.24V289.2H806.24ZM807.24 375.35H782.79V377.35H807.24V375.35ZM783.79 376.35V289.2H781.79V376.35H783.79ZM782.79 288.2H756.09V290.2H782.79V288.2ZM755.09 289.2V396H757.09V289.2H755.09ZM756.09 395H731.79V397H756.09V395ZM732.79 396V277.05H730.79V396H732.79ZM731.79 278.05H743.94V276.05H731.79V278.05ZM744.94 277.05V264.9H742.94V277.05H744.94ZM743.94 265.9H846.24V263.9H743.94V265.9ZM845.24 264.9V277.05H847.24V264.9H845.24ZM890.27 342.6H889.27V343.6H890.27V342.6ZM959.57 342.6V343.6H960.57V342.6H959.57ZM959.57 289.2H960.57V288.2H959.57V289.2ZM890.27 289.2V288.2H889.27V289.2H890.27ZM971.72 277.05H970.72V278.05H971.72V277.05ZM983.87 277.05H984.87V276.05H983.87V277.05ZM983.87 396.15V397.15H984.87V396.15H983.87ZM959.57 396.15H958.57V397.15H959.57V396.15ZM959.57 367.05H960.57V366.05H959.57V367.05ZM890.27 367.05V366.05H889.27V367.05H890.27ZM890.27 396.15V397.15H891.27V396.15H890.27ZM865.97 396.15H864.97V397.15H865.97V396.15ZM865.97 277.05V276.05H864.97V277.05H865.97ZM878.12 277.05V278.05H879.12V277.05H878.12ZM878.12 264.9V263.9H877.12V264.9H878.12ZM971.72 264.9H972.72V263.9H971.72V264.9ZM890.27 343.6H959.57V341.6H890.27V343.6ZM960.57 342.6V289.2H958.57V342.6H960.57ZM959.57 288.2H890.27V290.2H959.57V288.2ZM889.27 289.2V342.6H891.27V289.2H889.27ZM971.72 278.05H983.87V276.05H971.72V278.05ZM982.87 277.05V396.15H984.87V277.05H982.87ZM983.87 395.15H959.57V397.15H983.87V395.15ZM960.57 396.15V367.05H958.57V396.15H960.57ZM959.57 366.05H890.27V368.05H959.57V366.05ZM889.27 367.05V396.15H891.27V367.05H889.27ZM890.27 395.15H865.97V397.15H890.27V395.15ZM866.97 396.15V277.05H864.97V396.15H866.97ZM865.97 278.05H878.12V276.05H865.97V278.05ZM879.12 277.05V264.9H877.12V277.05H879.12ZM878.12 265.9H971.72V263.9H878.12V265.9ZM970.72 264.9V277.05H972.72V264.9H970.72ZM1028.11 367.8V368.8H1029.11V367.8H1028.11ZM1015.81 367.8V366.8H1014.81V367.8H1015.81ZM1015.81 371.7H1014.81V372.7H1015.81V371.7ZM1087.06 371.7H1088.06V370.7H1087.06V371.7ZM1087.06 396.15V397.15H1088.06V396.15H1087.06ZM991.507 396.15H990.507V397.15H991.507V396.15ZM991.507 355.65V354.65H990.507V355.65H991.507ZM1003.66 355.65V356.65H1004.66V355.65H1003.66ZM1003.66 343.35V342.35H1002.66V343.35H1003.66ZM1015.81 343.35V344.35H1016.81V343.35H1015.81ZM1015.81 331.2V330.2H1014.81V331.2H1015.81ZM1028.11 331.2V332.2H1029.11V331.2H1028.11ZM1028.11 319.05V318.05H1027.11V319.05H1028.11ZM1040.26 319.05V320.05H1041.26V319.05H1040.26ZM1040.26 306.75V305.75H1039.26V306.75H1040.26ZM1052.41 306.75V307.75H1053.41V306.75H1052.41ZM1052.41 294.6V293.6H1051.41V294.6H1052.41ZM1065.01 294.6V295.6H1066.01V294.6H1065.01ZM1065.01 289.2H1066.01V288.2H1065.01V289.2ZM993.457 289.2H992.457V290.2H993.457V289.2ZM993.457 264.9V263.9H992.457V264.9H993.457ZM1089.46 264.9H1090.46V263.9H1089.46V264.9ZM1089.46 307.05V308.05H1090.46V307.05H1089.46ZM1076.86 307.05V306.05H1075.86V307.05H1076.86ZM1076.86 319.05V320.05H1077.86V319.05H1076.86ZM1064.71 319.05V318.05H1063.71V319.05H1064.71ZM1064.71 331.2V332.2H1065.71V331.2H1064.71ZM1052.41 331.2V330.2H1051.41V331.2H1052.41ZM1052.41 343.35V344.35H1053.41V343.35H1052.41ZM1040.26 343.35V342.35H1039.26V343.35H1040.26ZM1040.26 355.65V356.65H1041.26V355.65H1040.26ZM1028.11 355.65V354.65H1027.11V355.65H1028.11ZM1028.11 366.8H1015.81V368.8H1028.11V366.8ZM1014.81 367.8V371.7H1016.81V367.8H1014.81ZM1015.81 372.7H1087.06V370.7H1015.81V372.7ZM1086.06 371.7V396.15H1088.06V371.7H1086.06ZM1087.06 395.15H1015.81V397.15H1087.06V395.15ZM1015.81 395.15H1003.66V397.15H1015.81V395.15ZM1003.66 395.15H991.507V397.15H1003.66V395.15ZM992.507 396.15V355.65H990.507V396.15H992.507ZM991.507 356.65H1003.66V354.65H991.507V356.65ZM1004.66 355.65V343.35H1002.66V355.65H1004.66ZM1003.66 344.35H1015.81V342.35H1003.66V344.35ZM1016.81 343.35V331.2H1014.81V343.35H1016.81ZM1015.81 332.2H1028.11V330.2H1015.81V332.2ZM1029.11 331.2V319.05H1027.11V331.2H1029.11ZM1028.11 320.05H1040.26V318.05H1028.11V320.05ZM1041.26 319.05V306.75H1039.26V319.05H1041.26ZM1040.26 307.75H1052.41V305.75H1040.26V307.75ZM1053.41 306.75V294.6H1051.41V306.75H1053.41ZM1052.41 295.6H1065.01V293.6H1052.41V295.6ZM1066.01 294.6V289.2H1064.01V294.6H1066.01ZM1065.01 288.2H993.457V290.2H1065.01V288.2ZM994.457 289.2V264.9H992.457V289.2H994.457ZM993.457 265.9H1065.01V263.9H993.457V265.9ZM1065.01 265.9H1077.16V263.9H1065.01V265.9ZM1077.16 265.9H1089.46V263.9H1077.16V265.9ZM1088.46 264.9V307.05H1090.46V264.9H1088.46ZM1089.46 306.05H1076.86V308.05H1089.46V306.05ZM1075.86 307.05V319.05H1077.86V307.05H1075.86ZM1076.86 318.05H1064.71V320.05H1076.86V318.05ZM1063.71 319.05V331.2H1065.71V319.05H1063.71ZM1064.71 330.2H1052.41V332.2H1064.71V330.2ZM1051.41 331.2V343.35H1053.41V331.2H1051.41ZM1052.41 342.35H1040.26V344.35H1052.41V342.35ZM1039.26 343.35V355.65H1041.26V343.35H1039.26ZM1040.26 354.65H1028.11V356.65H1040.26V354.65ZM1027.11 355.65V367.8H1029.11V355.65H1027.11ZM1179.63 289.2V290.2H1180.63V289.2H1179.63ZM1121.28 289.2V288.2H1120.28V289.2H1121.28ZM1121.28 318.3H1120.28V319.3H1121.28V318.3ZM1163.13 318.3H1164.13V317.3H1163.13V318.3ZM1163.13 342.6V343.6H1164.13V342.6H1163.13ZM1121.28 342.6V341.6H1120.28V342.6H1121.28ZM1121.28 371.7H1120.28V372.7H1121.28V371.7ZM1179.63 371.7H1180.63V370.7H1179.63V371.7ZM1179.63 396.15V397.15H1180.63V396.15H1179.63ZM1109.13 396.15H1108.13V397.15H1109.13V396.15ZM1109.13 383.85H1110.13V382.85H1109.13V383.85ZM1096.98 383.85H1095.98V384.85H1096.98V383.85ZM1096.98 277.05V276.05H1095.98V277.05H1096.98ZM1109.13 277.05V278.05H1110.13V277.05H1109.13ZM1109.13 264.9V263.9H1108.13V264.9H1109.13ZM1179.63 264.9H1180.63V263.9H1179.63V264.9ZM1179.63 288.2H1121.28V290.2H1179.63V288.2ZM1120.28 289.2V318.3H1122.28V289.2H1120.28ZM1121.28 319.3H1163.13V317.3H1121.28V319.3ZM1162.13 318.3V342.6H1164.13V318.3H1162.13ZM1163.13 341.6H1121.28V343.6H1163.13V341.6ZM1120.28 342.6V371.7H1122.28V342.6H1120.28ZM1121.28 372.7H1179.63V370.7H1121.28V372.7ZM1178.63 371.7V396.15H1180.63V371.7H1178.63ZM1179.63 395.15H1109.13V397.15H1179.63V395.15ZM1110.13 396.15V383.85H1108.13V396.15H1110.13ZM1109.13 382.85H1096.98V384.85H1109.13V382.85ZM1097.98 383.85V277.05H1095.98V383.85H1097.98ZM1096.98 278.05H1109.13V276.05H1096.98V278.05ZM1110.13 277.05V264.9H1108.13V277.05H1110.13ZM1109.13 265.9H1179.63V263.9H1109.13V265.9ZM1178.63 264.9V289.2H1180.63V264.9H1178.63ZM785.092 440.2V441.2H786.092V440.2H785.092ZM719.542 440.2V439.2H718.542V440.2H719.542ZM719.542 522.7H718.542V523.7H719.542V522.7ZM785.092 522.7H786.092V521.7H785.092V522.7ZM785.092 547.15V548.15H786.092V547.15H785.092ZM707.392 547.15H706.392V548.15H707.392V547.15ZM707.392 534.85H708.392V533.85H707.392V534.85ZM695.242 534.85H694.242V535.85H695.242V534.85ZM695.242 428.2V427.2H694.242V428.2H695.242ZM707.392 428.2V429.2H708.392V428.2H707.392ZM707.392 415.9V414.9H706.392V415.9H707.392ZM785.092 415.9H786.092V414.9H785.092V415.9ZM785.092 439.2H719.542V441.2H785.092V439.2ZM718.542 440.2V522.7H720.542V440.2H718.542ZM719.542 523.7H785.092V521.7H719.542V523.7ZM784.092 522.7V547.15H786.092V522.7H784.092ZM785.092 546.15H707.392V548.15H785.092V546.15ZM708.392 547.15V534.85H706.392V547.15H708.392ZM707.392 533.85H695.242V535.85H707.392V533.85ZM696.242 534.85V428.2H694.242V534.85H696.242ZM695.242 429.2H707.392V427.2H695.242V429.2ZM708.392 428.2V415.9H706.392V428.2H708.392ZM707.392 416.9H785.092V414.9H707.392V416.9ZM784.092 415.9V440.2H786.092V415.9H784.092ZM817.101 481.45H816.101V482.45H817.101V481.45ZM870.501 481.45V482.45H871.501V481.45H870.501ZM870.501 440.2H871.501V439.2H870.501V440.2ZM817.101 440.2V439.2H816.101V440.2H817.101ZM882.651 505.9V506.9H883.651V505.9H882.651ZM866.151 505.9V504.9H865.151V505.9H866.151ZM866.151 522.7H865.151V523.7H866.151V522.7ZM894.951 522.7H895.951V521.7H894.951V522.7ZM894.951 547V548H895.951V547H894.951ZM854.001 547H853.001V548H854.001V547ZM854.001 534.85H855.001V533.85H854.001V534.85ZM841.701 534.85H840.701V535.85H841.701V534.85ZM841.701 505.9H842.701V504.9H841.701V505.9ZM817.101 505.9V504.9H816.101V505.9H817.101ZM817.101 547V548H818.101V547H817.101ZM792.801 547H791.801V548H792.801V547ZM792.801 415.9V414.9H791.801V415.9H792.801ZM882.651 415.9H883.651V414.9H882.651V415.9ZM882.651 428.05H881.651V429.05H882.651V428.05ZM894.951 428.05H895.951V427.05H894.951V428.05ZM894.951 493.6V494.6H895.951V493.6H894.951ZM882.651 493.6V492.6H881.651V493.6H882.651ZM817.101 482.45H870.501V480.45H817.101V482.45ZM871.501 481.45V440.2H869.501V481.45H871.501ZM870.501 439.2H817.101V441.2H870.501V439.2ZM816.101 440.2V481.45H818.101V440.2H816.101ZM882.651 504.9H866.151V506.9H882.651V504.9ZM865.151 505.9V522.7H867.151V505.9H865.151ZM866.151 523.7H894.951V521.7H866.151V523.7ZM893.951 522.7V547H895.951V522.7H893.951ZM894.951 546H854.001V548H894.951V546ZM855.001 547V534.85H853.001V547H855.001ZM854.001 533.85H841.701V535.85H854.001V533.85ZM842.701 534.85V505.9H840.701V534.85H842.701ZM841.701 504.9H817.101V506.9H841.701V504.9ZM816.101 505.9V547H818.101V505.9H816.101ZM817.101 546H792.801V548H817.101V546ZM793.801 547V505.9H791.801V547H793.801ZM793.801 505.9V481.45H791.801V505.9H793.801ZM793.801 481.45V440.2H791.801V481.45H793.801ZM793.801 440.2V415.9H791.801V440.2H793.801ZM792.801 416.9H817.101V414.9H792.801V416.9ZM817.101 416.9H882.651V414.9H817.101V416.9ZM881.651 415.9V428.05H883.651V415.9H881.651ZM882.651 429.05H894.951V427.05H882.651V429.05ZM893.951 428.05V493.6H895.951V428.05H893.951ZM894.951 492.6H882.651V494.6H894.951V492.6ZM881.651 493.6V505.9H883.651V493.6H881.651ZM926.818 493.6H925.818V494.6H926.818V493.6ZM996.118 493.6V494.6H997.118V493.6H996.118ZM996.118 440.2H997.118V439.2H996.118V440.2ZM926.818 440.2V439.2H925.818V440.2H926.818ZM1008.27 428.05H1007.27V429.05H1008.27V428.05ZM1020.42 428.05H1021.42V427.05H1020.42V428.05ZM1020.42 547.15V548.15H1021.42V547.15H1020.42ZM996.118 547.15H995.118V548.15H996.118V547.15ZM996.118 518.05H997.118V517.05H996.118V518.05ZM926.818 518.05V517.05H925.818V518.05H926.818ZM926.818 547.15V548.15H927.818V547.15H926.818ZM902.518 547.15H901.518V548.15H902.518V547.15ZM902.518 428.05V427.05H901.518V428.05H902.518ZM914.668 428.05V429.05H915.668V428.05H914.668ZM914.668 415.9V414.9H913.668V415.9H914.668ZM1008.27 415.9H1009.27V414.9H1008.27V415.9ZM926.818 494.6H996.118V492.6H926.818V494.6ZM997.118 493.6V440.2H995.118V493.6H997.118ZM996.118 439.2H926.818V441.2H996.118V439.2ZM925.818 440.2V493.6H927.818V440.2H925.818ZM1008.27 429.05H1020.42V427.05H1008.27V429.05ZM1019.42 428.05V547.15H1021.42V428.05H1019.42ZM1020.42 546.15H996.118V548.15H1020.42V546.15ZM997.118 547.15V518.05H995.118V547.15H997.118ZM996.118 517.05H926.818V519.05H996.118V517.05ZM925.818 518.05V547.15H927.818V518.05H925.818ZM926.818 546.15H902.518V548.15H926.818V546.15ZM903.518 547.15V428.05H901.518V547.15H903.518ZM902.518 429.05H914.668V427.05H902.518V429.05ZM915.668 428.05V415.9H913.668V428.05H915.668ZM914.668 416.9H1008.27V414.9H914.668V416.9ZM1007.27 415.9V428.05H1009.27V415.9H1007.27ZM1064.65 518.8V519.8H1065.65V518.8H1064.65ZM1052.35 518.8V517.8H1051.35V518.8H1052.35ZM1052.35 522.7H1051.35V523.7H1052.35V522.7ZM1123.6 522.7H1124.6V521.7H1123.6V522.7ZM1123.6 547.15V548.15H1124.6V547.15H1123.6ZM1028.05 547.15H1027.05V548.15H1028.05V547.15ZM1028.05 506.65V505.65H1027.05V506.65H1028.05ZM1040.2 506.65V507.65H1041.2V506.65H1040.2ZM1040.2 494.35V493.35H1039.2V494.35H1040.2ZM1052.35 494.35V495.35H1053.35V494.35H1052.35ZM1052.35 482.2V481.2H1051.35V482.2H1052.35ZM1064.65 482.2V483.2H1065.65V482.2H1064.65ZM1064.65 470.05V469.05H1063.65V470.05H1064.65ZM1076.8 470.05V471.05H1077.8V470.05H1076.8ZM1076.8 457.75V456.75H1075.8V457.75H1076.8ZM1088.95 457.75V458.75H1089.95V457.75H1088.95ZM1088.95 445.6V444.6H1087.95V445.6H1088.95ZM1101.55 445.6V446.6H1102.55V445.6H1101.55ZM1101.55 440.2H1102.55V439.2H1101.55V440.2ZM1030 440.2H1029V441.2H1030V440.2ZM1030 415.9V414.9H1029V415.9H1030ZM1126 415.9H1127V414.9H1126V415.9ZM1126 458.05V459.05H1127V458.05H1126ZM1113.4 458.05V457.05H1112.4V458.05H1113.4ZM1113.4 470.05V471.05H1114.4V470.05H1113.4ZM1101.25 470.05V469.05H1100.25V470.05H1101.25ZM1101.25 482.2V483.2H1102.25V482.2H1101.25ZM1088.95 482.2V481.2H1087.95V482.2H1088.95ZM1088.95 494.35V495.35H1089.95V494.35H1088.95ZM1076.8 494.35V493.35H1075.8V494.35H1076.8ZM1076.8 506.65V507.65H1077.8V506.65H1076.8ZM1064.65 506.65V505.65H1063.65V506.65H1064.65ZM1064.65 517.8H1052.35V519.8H1064.65V517.8ZM1051.35 518.8V522.7H1053.35V518.8H1051.35ZM1052.35 523.7H1123.6V521.7H1052.35V523.7ZM1122.6 522.7V547.15H1124.6V522.7H1122.6ZM1123.6 546.15H1052.35V548.15H1123.6V546.15ZM1052.35 546.15H1040.2V548.15H1052.35V546.15ZM1040.2 546.15H1028.05V548.15H1040.2V546.15ZM1029.05 547.15V506.65H1027.05V547.15H1029.05ZM1028.05 507.65H1040.2V505.65H1028.05V507.65ZM1041.2 506.65V494.35H1039.2V506.65H1041.2ZM1040.2 495.35H1052.35V493.35H1040.2V495.35ZM1053.35 494.35V482.2H1051.35V494.35H1053.35ZM1052.35 483.2H1064.65V481.2H1052.35V483.2ZM1065.65 482.2V470.05H1063.65V482.2H1065.65ZM1064.65 471.05H1076.8V469.05H1064.65V471.05ZM1077.8 470.05V457.75H1075.8V470.05H1077.8ZM1076.8 458.75H1088.95V456.75H1076.8V458.75ZM1089.95 457.75V445.6H1087.95V457.75H1089.95ZM1088.95 446.6H1101.55V444.6H1088.95V446.6ZM1102.55 445.6V440.2H1100.55V445.6H1102.55ZM1101.55 439.2H1030V441.2H1101.55V439.2ZM1031 440.2V415.9H1029V440.2H1031ZM1030 416.9H1101.55V414.9H1030V416.9ZM1101.55 416.9H1113.7V414.9H1101.55V416.9ZM1113.7 416.9H1126V414.9H1113.7V416.9ZM1125 415.9V458.05H1127V415.9H1125ZM1126 457.05H1113.4V459.05H1126V457.05ZM1112.4 458.05V470.05H1114.4V458.05H1112.4ZM1113.4 469.05H1101.25V471.05H1113.4V469.05ZM1100.25 470.05V482.2H1102.25V470.05H1100.25ZM1101.25 481.2H1088.95V483.2H1101.25V481.2ZM1087.95 482.2V494.35H1089.95V482.2H1087.95ZM1088.95 493.35H1076.8V495.35H1088.95V493.35ZM1075.8 494.35V506.65H1077.8V494.35H1075.8ZM1076.8 505.65H1064.65V507.65H1076.8V505.65ZM1063.65 506.65V518.8H1065.65V506.65H1063.65ZM1216.17 440.2V441.2H1217.17V440.2H1216.17ZM1157.82 440.2V439.2H1156.82V440.2H1157.82ZM1157.82 469.3H1156.82V470.3H1157.82V469.3ZM1199.67 469.3H1200.67V468.3H1199.67V469.3ZM1199.67 493.6V494.6H1200.67V493.6H1199.67ZM1157.82 493.6V492.6H1156.82V493.6H1157.82ZM1157.82 522.7H1156.82V523.7H1157.82V522.7ZM1216.17 522.7H1217.17V521.7H1216.17V522.7ZM1216.17 547.15V548.15H1217.17V547.15H1216.17ZM1145.67 547.15H1144.67V548.15H1145.67V547.15ZM1145.67 534.85H1146.67V533.85H1145.67V534.85ZM1133.52 534.85H1132.52V535.85H1133.52V534.85ZM1133.52 428.05V427.05H1132.52V428.05H1133.52ZM1145.67 428.05V429.05H1146.67V428.05H1145.67ZM1145.67 415.9V414.9H1144.67V415.9H1145.67ZM1216.17 415.9H1217.17V414.9H1216.17V415.9ZM1216.17 439.2H1157.82V441.2H1216.17V439.2ZM1156.82 440.2V469.3H1158.82V440.2H1156.82ZM1157.82 470.3H1199.67V468.3H1157.82V470.3ZM1198.67 469.3V493.6H1200.67V469.3H1198.67ZM1199.67 492.6H1157.82V494.6H1199.67V492.6ZM1156.82 493.6V522.7H1158.82V493.6H1156.82ZM1157.82 523.7H1216.17V521.7H1157.82V523.7ZM1215.17 522.7V547.15H1217.17V522.7H1215.17ZM1216.17 546.15H1145.67V548.15H1216.17V546.15ZM1146.67 547.15V534.85H1144.67V547.15H1146.67ZM1145.67 533.85H1133.52V535.85H1145.67V533.85ZM1134.52 534.85V428.05H1132.52V534.85H1134.52ZM1133.52 429.05H1145.67V427.05H1133.52V429.05ZM1146.67 428.05V415.9H1144.67V428.05H1146.67ZM1145.67 416.9H1216.17V414.9H1145.67V416.9ZM1215.17 415.9V440.2H1217.17V415.9H1215.17Z" fill="#FFE604" mask="url(#path-7-outside-1_302_8)"/>
</g>
<defs>
<clipPath id="clip0_302_8">
<rect width="1920" height="870" fill="white"/>
</clipPath>
</defs>
</svg>
